<?xml version="1.0" encoding="utf-8"?>
<!-- Generator: Adobe Illustrator 15.0.0, SVG Export Plug-In . SVG Version: 6.00 Build 0)  -->
<!DOCTYPE svg PUBLIC "-//W3C//DTD SVG 1.1//EN" "http://www.w3.org/Graphics/SVG/1.1/DTD/svg11.dtd">
<svg version="1.1" id="Ebene_1" xmlns="http://www.w3.org/2000/svg" xmlns:xlink="http://www.w3.org/1999/xlink" x="0px" y="0px"
	 width="90px" height="90px" viewBox="0 0 90 90" enable-background="new 0 0 90 90" xml:space="preserve">
<g>
	<line fill="none" stroke="#0067B1" stroke-miterlimit="10" x1="44.96" y1="44.124" x2="47.212" y2="31.62"/>
	<line fill="none" stroke="#0067B1" stroke-miterlimit="10" x1="44.96" y1="44.124" x2="54.965" y2="36.872"/>
	<line fill="none" stroke="#0067B1" stroke-miterlimit="10" x1="44.96" y1="44.124" x2="56.965" y2="46.374"/>
	<line fill="none" stroke="#0067B1" stroke-miterlimit="10" x1="44.96" y1="44.124" x2="51.714" y2="54.627"/>
	<line fill="none" stroke="#0067B1" stroke-miterlimit="10" x1="44.96" y1="44.124" x2="42.208" y2="56.379"/>
	<line fill="none" stroke="#0067B1" stroke-miterlimit="10" x1="33.956" y1="51.126" x2="44.96" y2="44.124"/>
	<line fill="none" stroke="#0067B1" stroke-miterlimit="10" x1="32.205" y1="41.373" x2="44.96" y2="44.124"/>
	<line fill="none" stroke="#0067B1" stroke-miterlimit="10" x1="37.458" y1="33.369" x2="44.96" y2="44.124"/>
	<circle fill="#0067B1" cx="44.96" cy="44.125" r="5.295"/>
	<circle fill="#0067B1" cx="47.212" cy="31.619" r="2.962"/>
	<circle fill="#0067B1" cx="37.457" cy="33.369" r="2.963"/>
	<circle fill="#0067B1" cx="32.205" cy="41.373" r="2.962"/>
	<circle fill="#0067B1" cx="33.956" cy="51.126" r="2.962"/>
	<circle fill="#0067B1" cx="42.208" cy="56.377" r="2.961"/>
	<circle fill="#0067B1" cx="51.714" cy="54.627" r="2.961"/>
	<circle fill="#0067B1" cx="56.965" cy="46.374" r="2.961"/>
	<circle fill="#0067B1" cx="54.964" cy="36.871" r="2.962"/>
</g>
</svg>
